<svg width="87" height="87" viewBox="0 0 87 87" fill="none" xmlns="http://www.w3.org/2000/svg">
<g clip-path="url(#clip0_335:46)">
<path d="M44.3562 87C44.0682 87 43.7801 87 43.49 86.9987C36.6706 87.0153 30.3696 86.842 24.2417 86.469C18.6237 86.1272 13.4955 84.1857 9.41075 80.855C5.46936 77.641 2.77782 73.2954 1.41115 67.9402C0.221695 63.278 0.158638 58.7014 0.0982361 54.2748C0.054428 51.0987 0.0092926 47.3352 0 43.508C0.0092926 39.6648 0.054428 35.9013 0.0982361 32.7252C0.158638 28.2993 0.221695 23.7227 1.41115 19.0598C2.77782 13.7046 5.46936 9.35898 9.41075 6.14507C13.4955 2.81433 18.6237 0.872841 24.2424 0.531006C30.3702 0.158638 36.6726 -0.0152664 43.5066 0.00132758C50.3281 -0.0132751 56.6271 0.158638 62.7549 0.531006C68.373 0.872841 73.5012 2.81433 77.5859 6.14507C81.528 9.35898 84.2189 13.7046 85.5855 19.0598C86.775 23.722 86.838 28.2993 86.8984 32.7252C86.9423 35.9013 86.9881 39.6648 86.9967 43.492V43.508C86.9881 47.3352 86.9423 51.0987 86.8984 54.2748C86.838 58.7007 86.7757 63.2773 85.5855 67.9402C84.2189 73.2954 81.528 77.641 77.5859 80.855C73.5012 84.1857 68.373 86.1272 62.7549 86.469C56.8867 86.8261 50.8584 87 44.3562 87ZM43.49 80.2018C50.1986 80.2178 56.3583 80.0485 62.3421 79.6848C66.5901 79.4266 70.2733 78.0479 73.2908 75.5874C76.0799 73.3127 78.0008 70.1744 78.9997 66.2596C79.9901 62.3786 80.0471 58.2115 80.1022 54.1819C80.1454 51.027 80.1905 47.2901 80.1998 43.5C80.1905 39.7093 80.1454 35.973 80.1022 32.8182C80.0471 28.7885 79.9901 24.6214 78.9997 20.7398C78.0008 16.8249 76.0799 13.6867 73.2908 11.412C70.2733 8.9521 66.5901 7.57347 62.3421 7.31527C56.3583 6.95087 50.1986 6.78294 43.506 6.79754C36.7987 6.78161 30.6384 6.95087 24.6546 7.31527C20.4066 7.57347 16.7234 8.9521 13.7059 11.412C10.9168 13.6867 8.9959 16.8249 7.99695 20.7398C7.00662 24.6214 6.94954 28.7878 6.89445 32.8182C6.8513 35.9757 6.80617 39.7146 6.79688 43.508C6.80617 47.2848 6.8513 51.0244 6.89445 54.1819C6.94954 58.2115 7.00662 62.3786 7.99695 66.2596C8.9959 70.1744 10.9168 73.3127 13.7059 75.5874C16.7234 78.0473 20.4066 79.4259 24.6546 79.6841C30.6384 80.0485 36.8 80.2184 43.49 80.2018ZM43.3281 64.7402C31.6168 64.7402 22.0879 55.212 22.0879 43.5C22.0879 31.788 31.6168 22.2598 43.3281 22.2598C55.0401 22.2598 64.5683 31.788 64.5683 43.5C64.5683 55.212 55.0401 64.7402 43.3281 64.7402ZM43.3281 29.0566C35.3643 29.0566 28.8847 35.5363 28.8847 43.5C28.8847 51.4638 35.3643 57.9434 43.3281 57.9434C51.2925 57.9434 57.7714 51.4638 57.7714 43.5C57.7714 35.5363 51.2925 29.0566 43.3281 29.0566ZM66.9472 15.4629C64.1322 15.4629 61.8496 17.7449 61.8496 20.5606C61.8496 23.3762 64.1322 25.6582 66.9472 25.6582C69.7629 25.6582 72.0449 23.3762 72.0449 20.5606C72.0449 17.7449 69.7629 15.4629 66.9472 15.4629Z" fill="#715E55"/>
</g>
<defs>
<clipPath id="clip0_335:46">
<rect width="87" height="87" fill="white"/>
</clipPath>
</defs>
</svg>
