<svg width="26" height="26" viewBox="0 0 26 26" fill="none" xmlns="http://www.w3.org/2000/svg">
<g clip-path="url(#clip0_393_462)">
<path d="M13.2559 26C13.1698 26 13.0837 26 12.997 25.9996C10.959 26.0046 9.07596 25.9528 7.24466 25.8413C5.5657 25.7392 4.03314 25.159 2.81241 24.1636C1.63452 23.2031 0.830154 21.9044 0.421722 20.304C0.0662537 18.9107 0.0474091 17.5429 0.0293579 16.2201C0.0162658 15.2709 0.0027771 14.1462 0 13.0024C0.0027771 11.8539 0.0162658 10.7291 0.0293579 9.77995C0.0474091 8.45726 0.0662537 7.08953 0.421722 5.69602C0.830154 4.09562 1.63452 2.79693 2.81241 1.83645C4.03314 0.841053 5.5657 0.260837 7.24486 0.15868C9.07616 0.0473972 10.9596 -0.00457429 13.002 0.000384823C15.0406 -0.0039792 16.923 0.0473972 18.7543 0.15868C20.4333 0.260837 21.9659 0.841053 23.1866 1.83645C24.3647 2.79693 25.1689 4.09562 25.5773 5.69602C25.9328 7.08934 25.9516 8.45726 25.9697 9.77995C25.9827 10.7291 25.9964 11.8539 25.999 12.9976V13.0024C25.9964 14.1462 25.9827 15.2709 25.9697 16.2201C25.9516 17.5427 25.933 18.9105 25.5773 20.304C25.1689 21.9044 24.3647 23.2031 23.1866 24.1636C21.9659 25.159 20.4333 25.7392 18.7543 25.8413C17.0006 25.948 15.1991 26 13.2559 26V26ZM12.997 23.9684C15.0019 23.9731 16.8427 23.9225 18.631 23.8138C19.9005 23.7367 21.0012 23.3247 21.903 22.5893C22.7365 21.9095 23.3106 20.9717 23.6091 19.8017C23.9051 18.6419 23.9221 17.3966 23.9386 16.1923C23.9515 15.2495 23.965 14.1327 23.9678 13C23.965 11.8671 23.9515 10.7505 23.9386 9.80772C23.9221 8.60345 23.9051 7.35812 23.6091 6.19808C23.3106 5.02813 22.7365 4.09026 21.903 3.41047C21.0012 2.67533 19.9005 2.26333 18.631 2.18616C16.8427 2.07726 15.0019 2.02707 13.0018 2.03144C10.9973 2.02668 9.1563 2.07726 7.36804 2.18616C6.09851 2.26333 4.99779 2.67533 4.09602 3.41047C3.2625 4.09026 2.68843 5.02813 2.38989 6.19808C2.09393 7.35812 2.07687 8.60325 2.06041 9.80772C2.04752 10.7513 2.03403 11.8687 2.03125 13.0024C2.03403 14.1311 2.04752 15.2487 2.06041 16.1923C2.07687 17.3966 2.09393 18.6419 2.38989 19.8017C2.68843 20.9717 3.2625 21.9095 4.09602 22.5893C4.99779 23.3245 6.09851 23.7365 7.36804 23.8136C9.1563 23.9225 10.9977 23.9733 12.997 23.9684V23.9684ZM12.9486 19.3477C9.44868 19.3477 6.60097 16.5001 6.60097 13C6.60097 9.49986 9.44868 6.65234 12.9486 6.65234C16.4488 6.65234 19.2963 9.49986 19.2963 13C19.2963 16.5001 16.4488 19.3477 12.9486 19.3477V19.3477ZM12.9486 8.68359C10.5686 8.68359 8.63222 10.62 8.63222 13C8.63222 15.38 10.5686 17.3164 12.9486 17.3164C15.3288 17.3164 17.265 15.38 17.265 13C17.265 10.62 15.3288 8.68359 12.9486 8.68359V8.68359ZM20.0072 4.62109C19.166 4.62109 18.4838 5.30306 18.4838 6.14453C18.4838 6.98599 19.166 7.66797 20.0072 7.66797C20.8487 7.66797 21.5307 6.98599 21.5307 6.14453C21.5307 5.30306 20.8487 4.62109 20.0072 4.62109Z" fill="black"/>
</g>
<defs>
<clipPath id="clip0_393_462">
<rect width="26" height="26" fill="white"/>
</clipPath>
</defs>
</svg>
