<svg width="26" height="26" viewBox="0 0 26 26" fill="none" xmlns="http://www.w3.org/2000/svg">
<g clip-path="url(#clip0_393_466)">
<path d="M25.5978 2.58276C25.2802 2.19437 24.8046 1.98053 24.2583 1.98053C23.9613 1.98053 23.6467 2.04301 23.3234 2.1666L1.31486 10.5679C0.146891 11.0136 -0.0104115 11.6825 -0.000294887 12.0416C0.00982168 12.4006 0.204814 13.0596 1.39619 13.4386C1.40333 13.4408 1.41047 13.443 1.41761 13.445L5.98277 14.7514L8.45161 21.8112C8.78823 22.7737 9.5438 23.3715 10.4237 23.3715C10.9786 23.3715 11.5243 23.1391 12.0019 22.6995L14.8256 20.0995L18.9213 23.3973C18.9217 23.3977 18.9223 23.3979 18.9227 23.3983L18.9615 23.4297C18.9651 23.4324 18.9689 23.4354 18.9725 23.4382C19.4277 23.7913 19.9246 23.9777 20.41 23.9779H20.4102C21.3586 23.9779 22.1137 23.2759 22.3337 22.1897L25.9398 4.38371C26.0846 3.66901 25.9632 3.02948 25.5978 2.58276ZM7.50997 14.5033L16.3175 10.0038L10.8334 15.8311C10.7435 15.9265 10.6798 16.0434 10.6485 16.1705L9.59101 20.454L7.50997 14.5033ZM10.9698 21.5787C10.9333 21.6122 10.8966 21.6422 10.86 21.6698L11.8411 17.6961L13.6257 19.1333L10.9698 21.5787ZM24.4467 4.08121L20.8406 21.8874C20.8059 22.0578 20.695 22.4543 20.41 22.4543C20.2692 22.4543 20.0922 22.3775 19.9111 22.2381L15.2702 18.5013C15.2696 18.5007 15.2688 18.5001 15.268 18.4997L12.5066 16.276L20.4374 7.84894C20.6913 7.57916 20.7143 7.16597 20.4919 6.86961C20.2694 6.57326 19.8661 6.48003 19.5362 6.64864L6.49217 13.3125L1.86492 11.9886L23.8667 3.58986C24.0526 3.51884 24.1823 3.50397 24.2583 3.50397C24.3049 3.50397 24.3878 3.50952 24.4185 3.54741C24.459 3.5968 24.5106 3.76521 24.4467 4.08121Z" fill="black"/>
</g>
<defs>
<clipPath id="clip0_393_466">
<rect width="26" height="26" fill="white"/>
</clipPath>
</defs>
</svg>
