<svg width="26" height="26" viewBox="0 0 26 26" fill="none" xmlns="http://www.w3.org/2000/svg">
<g clip-path="url(#clip0_393_460)">
<path d="M21.5746 14.1136C21.1543 13.5827 21.2745 13.3466 21.5746 12.8721C21.58 12.8666 25.0499 8.07181 25.4074 6.44573L25.4096 6.44465C25.5873 5.85206 25.4096 5.41656 24.5505 5.41656H21.7078C20.9842 5.41656 20.6505 5.79031 20.4718 6.20848C20.4718 6.20848 19.0244 9.67298 16.9769 11.9187C16.3161 12.5676 16.0106 12.7756 15.6498 12.7756C15.4722 12.7756 15.1959 12.5676 15.1959 11.9751V6.44465C15.1959 5.73398 14.9933 5.41656 14.3942 5.41656H9.92442C9.4705 5.41656 9.20075 5.74807 9.20075 6.05682C9.20075 6.73065 10.2245 6.88556 10.3307 8.7814V12.8948C10.3307 13.7961 10.1671 13.9619 9.80417 13.9619C8.83783 13.9619 6.49242 10.4833 5.1025 6.50206C4.82192 5.72965 4.54783 5.41765 3.81875 5.41765H0.975C0.163583 5.41765 0 5.7914 0 6.20956C0 6.9484 0.966333 10.622 4.49367 15.4753C6.8445 18.7881 10.1552 20.5832 13.1668 20.5832C14.9771 20.5832 15.1981 20.1846 15.1981 19.4988C15.1981 16.3333 15.0345 16.0343 15.9413 16.0343C16.3616 16.0343 17.0853 16.2423 18.7752 17.8402C20.7068 19.735 21.0243 20.5832 22.1054 20.5832H24.9481C25.7584 20.5832 26.169 20.1846 25.9328 19.3981C25.3923 17.7438 21.7393 14.3411 21.5746 14.1136Z" fill="black"/>
</g>
<defs>
<clipPath id="clip0_393_460">
<rect width="26" height="26" fill="white"/>
</clipPath>
</defs>
</svg>
