<svg width="34" height="34" viewBox="0 0 34 34" fill="none" xmlns="http://www.w3.org/2000/svg">
<path fill-rule="evenodd" clip-rule="evenodd" d="M10.6667 32.75C12.1394 32.75 13.3333 31.6307 13.3333 30.25C13.3333 28.8693 12.1394 27.75 10.6667 27.75C9.19391 27.75 8 28.8693 8 30.25C8 31.6307 9.19391 32.75 10.6667 32.75Z" stroke="black" stroke-width="2" stroke-linecap="round" stroke-linejoin="round"/>
<path fill-rule="evenodd" clip-rule="evenodd" d="M26.6667 32.75C28.1394 32.75 29.3333 31.6307 29.3333 30.25C29.3333 28.8693 28.1394 27.75 26.6667 27.75C25.1939 27.75 24 28.8693 24 30.25C24 31.6307 25.1939 32.75 26.6667 32.75Z" stroke="black" stroke-width="2" stroke-linecap="round" stroke-linejoin="round"/>
<path d="M7.55992 11.5H30.6666L28.4266 21.9875C28.1749 23.1753 27.0514 24.0232 25.7599 24H11.6666C10.3192 24.0107 9.17503 23.0775 8.99992 21.825L6.97325 7.425C6.79941 6.18199 5.67047 5.2519 4.33325 5.25H1.33325" stroke="black" stroke-width="2" stroke-linecap="round" stroke-linejoin="round"/>
<circle cx="24" cy="10" r="10" fill="#F72464"/>
<path d="M27.132 7.352C27.132 7.944 26.952 8.416 26.592 8.768C26.24 9.12 25.804 9.36 25.284 9.488V9.524C25.972 9.604 26.492 9.812 26.844 10.148C27.204 10.484 27.384 10.936 27.384 11.504C27.384 12 27.26 12.448 27.012 12.848C26.772 13.24 26.396 13.552 25.884 13.784C25.38 14.008 24.728 14.12 23.928 14.12C23 14.12 22.176 13.964 21.456 13.652V12.116C21.824 12.3 22.208 12.44 22.608 12.536C23.016 12.632 23.392 12.68 23.736 12.68C24.384 12.68 24.836 12.568 25.092 12.344C25.356 12.12 25.488 11.804 25.488 11.396C25.488 11.156 25.428 10.956 25.308 10.796C25.188 10.628 24.976 10.504 24.672 10.424C24.376 10.336 23.96 10.292 23.424 10.292H22.776V8.9H23.436C23.964 8.9 24.364 8.852 24.636 8.756C24.916 8.652 25.104 8.516 25.2 8.348C25.304 8.172 25.356 7.972 25.356 7.748C25.356 7.444 25.26 7.208 25.068 7.04C24.884 6.864 24.572 6.776 24.132 6.776C23.724 6.776 23.368 6.848 23.064 6.992C22.768 7.128 22.516 7.264 22.308 7.4L21.468 6.152C21.804 5.912 22.196 5.712 22.644 5.552C23.1 5.392 23.64 5.312 24.264 5.312C25.144 5.312 25.84 5.492 26.352 5.852C26.872 6.204 27.132 6.704 27.132 7.352Z" fill="white"/>
</svg>
