<svg width="119" height="48" viewBox="0 0 119 48" fill="none" xmlns="http://www.w3.org/2000/svg">
<path d="M1.63398 38.736C0.929125 38.32 0.480582 37.872 0.288349 37.392C0.0961164 36.944 0 36.56 0 36.24C0 35.344 0.320388 34.128 0.961164 32.592C1.63398 31.056 2.51505 29.312 3.60437 27.36C4.72572 25.376 5.95922 23.328 7.30485 21.216C6.11941 21.12 5.11019 21.056 4.27718 21.024C3.44417 20.992 2.7233 20.976 2.11456 20.976H0.432524C0.784951 20.048 1.39369 19.408 2.25874 19.056C3.15582 18.672 4.2131 18.48 5.43058 18.48C5.97524 18.48 6.53592 18.512 7.11261 18.576C7.68931 18.64 8.28203 18.72 8.89077 18.816C10.5247 16.352 12.1908 13.968 13.8888 11.664C15.6189 9.328 17.2209 7.264 18.6946 5.472C20.2005 3.648 21.45 2.272 22.4432 1.344C23.3723 0.448 24.1412 0 24.75 0C25.4228 0 26.2718 0.512 27.2971 1.536C26.9767 1.792 26.5602 2.48 26.0476 3.6C25.567 4.688 25.0383 6.064 24.4616 7.728C23.917 9.392 23.3723 11.216 22.8276 13.2C22.283 15.184 21.7704 17.216 21.2898 19.296C20.8412 21.344 20.4728 23.296 20.1844 25.152C19.9281 27.008 19.8 28.64 19.8 30.048C19.8 31.264 19.9281 32.208 20.1844 32.88C20.4728 33.552 20.9374 33.888 21.5781 33.888C22.4111 33.888 23.3563 33.312 24.4136 32.16C25.4708 31.008 26.6242 29.216 27.8738 26.784L28.3543 27.264C27.3932 29.824 26.1597 31.92 24.6539 33.552C23.1801 35.184 21.6422 36 20.0403 36C18.7267 36 17.7655 35.424 17.1568 34.272C16.5801 33.088 16.2917 31.52 16.2917 29.568C16.2917 27.52 16.5641 25.136 17.1087 22.416C15.699 22.192 14.4014 22.016 13.216 21.888C12.0626 21.728 10.9893 21.584 9.99611 21.456C8.49028 24.24 7.0165 27.104 5.57475 30.048C4.16504 32.992 2.85145 35.888 1.63398 38.736ZM17.4451 20.736C17.9257 18.624 18.4864 16.496 19.1272 14.352C19.7679 12.176 20.4408 10.112 21.1456 8.16C21.8825 6.208 22.5713 4.496 23.2121 3.024C22.2189 3.632 21.0655 4.72 19.7519 6.288C18.4704 7.824 17.1087 9.712 15.667 11.952C14.2252 14.16 12.7514 16.592 11.2456 19.248C12.3349 19.472 13.4082 19.728 14.4655 20.016C15.5548 20.272 16.548 20.512 17.4451 20.736Z" fill="black"/>
<path d="M33.399 13.584C32.8863 13.584 32.4378 13.456 32.0533 13.2C31.6689 12.944 31.4766 12.56 31.4766 12.048C31.4766 11.312 31.8611 10.704 32.63 10.224C33.431 9.744 34.2159 9.504 34.9849 9.504C35.4334 9.504 35.8019 9.616 36.0902 9.84C36.4106 10.064 36.5708 10.4 36.5708 10.848C36.5708 11.552 36.2344 12.192 35.5616 12.768C34.9208 13.312 34.1999 13.584 33.399 13.584ZM20.1829 48C19.382 48 18.7732 47.76 18.3567 47.28C17.9082 46.832 17.6839 46.256 17.6839 45.552C17.6839 44.368 18.2606 43.072 19.414 41.664C20.5354 40.256 21.9771 39.056 23.7393 38.064C24.1878 37.808 24.6684 37.568 25.181 37.344C25.6616 37.12 26.2062 36.848 26.815 36.528C27.4558 34.992 28.0485 33.248 28.5931 31.296C29.1378 29.312 29.6184 27.12 30.0349 24.72C29.5543 25.584 29.1058 26.336 28.6892 26.976C28.3048 27.616 28.0004 28.128 27.7761 28.512L27.3436 27.792C27.8883 26.8 28.3689 25.744 28.7854 24.624C29.2339 23.472 29.6504 22.384 30.0349 21.36C30.4514 20.336 30.8679 19.504 31.2844 18.864C31.7009 18.224 32.1494 17.904 32.63 17.904C32.9824 17.904 33.2548 18.048 33.447 18.336C33.6713 18.592 33.7834 18.928 33.7834 19.344C33.7834 19.696 33.6873 20.384 33.4951 21.408C33.3349 22.4 33.0786 23.632 32.7261 25.104C32.4057 26.544 32.0053 28.112 31.5247 29.808C31.0441 31.504 30.5155 33.216 29.9388 34.944C30.8679 34.4 31.797 33.84 32.7261 33.264C33.6553 32.688 34.5844 31.92 35.5135 30.96C36.4747 30 37.4038 28.688 38.3009 27.024L38.9256 27.36C38.1247 29.248 37.1635 30.752 36.0422 31.872C34.9528 32.96 33.8315 33.824 32.6781 34.464C31.5247 35.104 30.4514 35.712 29.4582 36.288C28.7533 38.272 27.9203 40.16 26.9592 41.952C26.03 43.744 25.0048 45.2 23.8834 46.32C22.73 47.44 21.4965 48 20.1829 48ZM19.7504 46.368C20.3912 46.368 21.3203 45.664 22.5378 44.256C23.7232 42.88 24.9407 40.816 26.1902 38.064C23.7553 39.248 21.9451 40.48 20.7596 41.76C19.5422 43.04 18.9334 44.192 18.9334 45.216C18.9334 45.632 19.0135 45.92 19.1737 46.08C19.3339 46.272 19.5261 46.368 19.7504 46.368Z" fill="black"/>
<path d="M40.9813 36C39.8919 36 39.0109 35.52 38.3381 34.56C37.6973 33.568 37.3769 32.432 37.3769 31.152C37.3769 30.224 37.5211 29.152 37.8094 27.936C38.1298 26.72 38.5143 25.52 38.9628 24.336C39.4114 23.152 39.8759 22.176 40.3565 21.408C40.8371 20.64 41.2536 20.256 41.606 20.256C41.7662 20.256 42.0385 20.352 42.423 20.544C42.8075 20.704 43.1279 20.928 43.3842 21.216C43.0317 21.76 42.5992 22.592 42.0866 23.712C41.574 24.832 41.1254 26.032 40.741 27.312C40.3565 28.592 40.1643 29.776 40.1643 30.864C40.1643 31.12 40.1963 31.52 40.2604 32.064C40.3245 32.576 40.4847 33.04 40.741 33.456C40.9973 33.872 41.3817 34.08 41.8944 34.08C42.5031 34.08 43.1279 33.776 43.7686 33.168C44.4094 32.528 45.0502 31.712 45.691 30.72C46.3638 29.728 47.0046 28.656 47.6133 27.504C48.222 26.352 48.7827 25.248 49.2953 24.192C49.84 23.136 50.2885 22.256 50.641 21.552C50.8332 21.584 51.1055 21.648 51.4579 21.744C51.8424 21.84 52.1788 21.968 52.4672 22.128C52.7876 22.288 52.9478 22.512 52.9478 22.8C52.9478 22.928 52.7876 23.36 52.4672 24.096C52.1468 24.8 51.7623 25.68 51.3138 26.736C50.8973 27.76 50.5288 28.8 50.2084 29.856C49.888 30.912 49.7279 31.84 49.7279 32.64C49.7279 33.216 49.84 33.68 50.0643 34.032C50.3206 34.384 50.7371 34.56 51.3138 34.56C51.9866 34.56 52.8036 34.256 53.7647 33.648C54.7259 33.04 55.7031 32.16 56.6963 31.008C57.6895 29.824 58.5706 28.416 59.3395 26.784L59.9643 27.216C59.2914 28.944 58.4104 30.48 57.321 31.824C56.2317 33.136 55.0783 34.16 53.8609 34.896C52.6434 35.632 51.4579 36 50.3046 36C49.023 36 48.1419 35.648 47.6614 34.944C47.1808 34.272 46.9405 33.44 46.9405 32.448C46.9405 32.064 46.9725 31.68 47.0366 31.296C47.1007 30.88 47.1808 30.464 47.2769 30.048C46.3798 31.616 45.4026 33.008 44.3453 34.224C43.3201 35.408 42.1987 36 40.9813 36Z" fill="black"/>
<path d="M66.7634 35.808C65.674 35.808 64.809 35.52 64.1682 34.944C63.5595 34.368 63.2551 33.616 63.2551 32.688C63.2551 31.728 63.4794 30.72 63.9279 29.664C64.3765 28.608 64.809 27.568 65.2255 26.544C65.674 25.488 65.8983 24.544 65.8983 23.712C65.8983 22.688 65.5939 21.936 64.9852 21.456C64.4085 20.944 63.8158 20.48 63.2071 20.064C62.4702 21.952 61.7012 23.744 60.9003 25.44C60.0993 27.136 59.4425 28.416 58.9299 29.28L58.4973 28.464C58.9459 27.632 59.5226 26.416 60.2274 24.816C60.9643 23.216 61.6852 21.392 62.3901 19.344C62.0697 19.024 61.9095 18.64 61.9095 18.192C61.9095 17.232 62.1818 16.448 62.7265 15.84C63.2711 15.232 63.6716 14.928 63.9279 14.928C64.2804 14.928 64.4726 15.088 64.5046 15.408C64.5687 15.696 64.6007 15.92 64.6007 16.08C64.6007 16.24 64.5046 16.56 64.3124 17.04C64.1522 17.488 64.0721 17.76 64.0721 17.856C64.0721 18.304 64.3124 18.72 64.793 19.104C65.3056 19.456 65.8823 19.872 66.5231 20.352C67.1638 20.8 67.7245 21.36 68.2051 22.032C68.7177 22.672 68.974 23.504 68.974 24.528C68.974 25.488 68.7658 26.464 68.3493 27.456C67.9648 28.448 67.5643 29.392 67.1478 30.288C66.7634 31.184 66.5711 31.968 66.5711 32.64C66.5711 33.216 66.7153 33.6 67.0036 33.792C67.292 33.984 67.6284 34.08 68.0129 34.08C68.7818 34.08 69.5668 33.84 70.3677 33.36C71.2007 32.88 72.0017 32.272 72.7706 31.536C73.5396 30.8 74.2284 30.032 74.8371 29.232C75.4459 28.4 75.8944 27.632 76.1828 26.928L76.8075 27.408C76.1988 28.752 75.3658 30.08 74.3085 31.392C73.2512 32.672 72.0658 33.728 70.7522 34.56C69.4706 35.392 68.141 35.808 66.7634 35.808Z" fill="black"/>
<path d="M89.4303 36.384C88.5332 36.384 87.7643 36.08 87.1235 35.472C86.4827 34.864 85.9701 34.096 85.5857 33.168C85.2332 32.24 84.9609 31.296 84.7687 30.336C84.6085 29.344 84.5284 28.48 84.5284 27.744C84.8808 27.744 85.3934 27.664 86.0662 27.504C86.7391 27.312 87.4279 27.04 88.1327 26.688C88.8376 26.304 89.4303 25.824 89.9109 25.248C90.4235 24.64 90.6798 23.936 90.6798 23.136C90.6798 22.464 90.4395 21.936 89.959 21.552C89.4784 21.168 88.9177 20.976 88.2769 20.976C87.2837 20.976 86.3546 21.328 85.4895 22.032C84.6245 22.704 83.8395 23.6 83.1347 24.72C82.4619 25.808 81.8531 26.976 81.3085 28.224C80.7638 29.472 80.2993 30.656 79.9148 31.776C79.5303 32.896 79.2099 33.824 78.9536 34.56C78.7614 35.136 78.4891 35.52 78.1366 35.712C77.7842 35.936 77.4158 36.048 77.0313 36.048C76.4866 36.048 76.0862 35.824 75.8298 35.376C75.6056 34.928 75.4614 34.368 75.3973 33.696C75.3653 32.992 75.3493 32.272 75.3493 31.536C75.3493 29.872 75.6216 27.952 76.1662 25.776C76.7109 23.6 77.4318 21.344 78.3289 19.008C79.258 16.64 80.2672 14.352 81.3565 12.144C82.4459 9.936 83.5352 7.936 84.6245 6.144C85.7138 4.352 86.723 2.928 87.6522 1.872C88.5813 0.815999 89.3342 0.287999 89.9109 0.287999C90.3594 0.287999 90.7119 0.591999 90.9682 1.2C91.2565 1.808 91.4007 2.544 91.4007 3.408C91.4007 4.496 91.1604 5.728 90.6798 7.104C90.1992 8.448 89.5104 9.808 88.6133 11.184C87.7483 12.56 86.707 13.856 85.4895 15.072C84.3041 16.288 83.0065 17.328 81.5968 18.192C80.5395 20.784 79.7386 23.312 79.1939 25.776C78.6813 28.208 78.425 30.256 78.425 31.92C78.9376 30.64 79.5463 29.232 80.2512 27.696C80.9881 26.16 81.8211 24.688 82.7502 23.28C83.6793 21.872 84.6886 20.72 85.7779 19.824C86.8672 18.928 88.0046 18.48 89.19 18.48C90.3755 18.48 91.3847 18.896 92.2177 19.728C93.0507 20.56 93.4672 21.568 93.4672 22.752C93.4672 23.776 93.1949 24.656 92.6502 25.392C92.1376 26.096 91.4968 26.672 90.7279 27.12C89.991 27.536 89.2381 27.856 88.4691 28.08C87.7323 28.272 87.1235 28.368 86.6429 28.368C86.675 28.624 86.7711 29.088 86.9313 29.76C87.0915 30.432 87.3158 31.136 87.6041 31.872C87.9245 32.608 88.309 33.248 88.7575 33.792C89.206 34.304 89.7507 34.56 90.3915 34.56C91.7691 34.56 93.0507 33.808 94.2361 32.304C95.4216 30.768 96.5109 28.912 97.5041 26.736L97.9847 27.216C97.5361 28.784 96.8473 30.272 95.9182 31.68C94.989 33.056 93.9478 34.176 92.7944 35.04C91.673 35.936 90.5517 36.384 89.4303 36.384ZM82.4138 16.272C83.8876 15.088 85.1691 13.744 86.2585 12.24C87.3798 10.736 88.2449 9.296 88.8536 7.92C89.4624 6.512 89.7667 5.408 89.7667 4.608C89.7667 4.32 89.7187 4.176 89.6225 4.176C89.3022 4.176 88.7415 4.736 87.9405 5.856C87.1716 6.976 86.2905 8.464 85.2973 10.32C84.3041 12.144 83.3429 14.128 82.4138 16.272Z" fill="black"/>
<path d="M98.9117 36.816C97.9185 36.816 97.0855 36.48 96.4126 35.808C95.7078 35.168 95.3554 34.176 95.3554 32.832C95.3554 31.68 95.6117 30.448 96.1243 29.136C96.6369 27.792 97.3418 26.48 98.2389 25.2C99.1359 23.888 100.145 22.704 101.267 21.648C102.42 20.56 103.621 19.696 104.871 19.056C106.152 18.416 107.418 18.096 108.667 18.096C109.917 18.096 110.958 18.432 111.791 19.104C112.624 19.744 113.041 20.608 113.041 21.696C113.041 22.496 112.817 23.04 112.368 23.328C111.951 23.616 111.391 23.76 110.686 23.76C110.846 23.184 110.926 22.624 110.926 22.08C110.926 21.344 110.75 20.72 110.398 20.208C110.045 19.664 109.436 19.392 108.571 19.392C107.674 19.392 106.761 19.712 105.832 20.352C104.903 20.96 104.006 21.792 103.141 22.848C102.276 23.872 101.507 24.992 100.834 26.208C100.161 27.424 99.6325 28.624 99.2481 29.808C98.8636 30.992 98.6714 32.048 98.6714 32.976C98.6714 34.224 99.1039 34.848 99.969 34.848C100.706 34.848 101.507 34.512 102.372 33.84C103.237 33.136 104.118 32.256 105.015 31.2C105.944 30.112 106.825 28.992 107.658 27.84C108.491 26.688 109.228 25.632 109.869 24.672C109.997 24.48 110.077 24.384 110.109 24.384C110.398 24.416 110.782 24.544 111.263 24.768C111.743 24.96 111.984 25.232 111.984 25.584C111.984 25.872 111.839 26.272 111.551 26.784C111.263 27.264 110.942 27.824 110.59 28.464C110.237 29.104 109.917 29.76 109.629 30.432C109.34 31.072 109.196 31.68 109.196 32.256C109.196 32.736 109.324 33.216 109.581 33.696C109.837 34.144 110.253 34.368 110.83 34.368C111.695 34.368 112.833 33.744 114.242 32.496C115.652 31.216 117.078 29.312 118.519 26.784L119 27.264C118.327 28.992 117.462 30.512 116.405 31.824C115.348 33.136 114.21 34.16 112.993 34.896C111.807 35.632 110.638 36 109.484 36C108.299 36 107.418 35.648 106.841 34.944C106.297 34.24 106.024 33.472 106.024 32.64C106.024 32.224 106.072 31.76 106.168 31.248C104.791 33.104 103.525 34.496 102.372 35.424C101.251 36.352 100.097 36.816 98.9117 36.816Z" fill="black"/>
</svg>
