<svg width="32" height="30" viewBox="0 0 32 30" fill="none" xmlns="http://www.w3.org/2000/svg">
<path d="M25.3036 18.5839C24.6475 17.9444 23.8562 17.6025 23.0175 17.6025C22.1856 17.6025 21.3875 17.9381 20.7043 18.5776L18.567 20.5721C18.3912 20.4834 18.2153 20.4011 18.0462 20.3188C17.8027 20.2048 17.5728 20.0972 17.3766 19.9832C15.3746 18.7928 13.5551 17.2416 11.8101 15.2344C10.9647 14.234 10.3965 13.3919 9.98393 12.5371C10.5386 12.0622 11.0526 11.5684 11.5531 11.0935C11.7425 10.9162 11.9319 10.7326 12.1213 10.5553C13.5416 9.22564 13.5416 7.50341 12.1213 6.17376L10.2748 4.4452C10.0651 4.24892 9.84866 4.0463 9.64575 3.84369C9.23993 3.45112 8.81382 3.04589 8.37418 2.66599C7.71811 2.05815 6.93353 1.73523 6.10836 1.73523C5.28319 1.73523 4.48508 2.05815 3.80872 2.66599C3.80195 2.67232 3.80195 2.67232 3.79519 2.67865L1.49555 4.85043C0.629797 5.66089 0.13605 6.64863 0.0278315 7.79467C-0.134496 9.64353 0.447178 11.3658 0.89358 12.4928C1.98929 15.2598 3.6261 17.8241 6.06778 20.5721C9.03026 23.8835 12.5947 26.4985 16.6664 28.3411C18.2221 29.0312 20.2985 29.848 22.6184 29.9873C22.7605 29.9936 22.9093 30 23.0446 30C24.607 30 25.9191 29.4744 26.9472 28.4297C26.954 28.417 26.9675 28.4107 26.9742 28.398C27.326 27.9991 27.7318 27.6382 28.1579 27.252C28.4487 26.9924 28.7463 26.7201 29.0372 26.4352C29.7068 25.7831 30.0585 25.0232 30.0585 24.2444C30.0585 23.4593 29.7 22.7058 29.0169 22.0727L25.3036 18.5839ZM27.725 25.2512C27.7182 25.2512 27.7182 25.2575 27.725 25.2512C27.4612 25.5171 27.1907 25.7577 26.8998 26.0237C26.4602 26.4162 26.0138 26.8278 25.5945 27.29C24.9113 27.9738 24.1065 28.2967 23.0513 28.2967C22.9499 28.2967 22.8416 28.2967 22.7402 28.2904C20.7314 28.1701 18.8646 27.4356 17.4645 26.8088C13.6363 25.0739 10.2748 22.6109 7.48138 19.4893C5.17497 16.887 3.63286 14.481 2.61155 11.8976C1.98253 10.321 1.75256 9.09267 1.85402 7.93397C1.92166 7.19316 2.22602 6.57899 2.7874 6.05345L5.09381 3.89434C5.42523 3.60308 5.77694 3.44479 6.12189 3.44479C6.548 3.44479 6.89294 3.6854 7.10938 3.88801C7.11614 3.89434 7.12291 3.90067 7.12967 3.90701C7.54225 4.26791 7.93455 4.64148 8.34713 5.04038C8.5568 5.243 8.77324 5.44561 8.98968 5.65456L10.8362 7.38311C11.5531 8.05427 11.5531 8.67478 10.8362 9.34594C10.64 9.52956 10.4506 9.71318 10.2545 9.89047C9.68633 10.435 9.14524 10.9415 8.5568 11.4354C8.54328 11.4481 8.52975 11.4544 8.52299 11.4671C7.94131 12.0116 8.04953 12.5435 8.17128 12.9044C8.17804 12.9234 8.1848 12.9423 8.19157 12.9613C8.67179 14.0504 9.34815 15.0761 10.3762 16.2982L10.383 16.3045C12.2498 18.4573 14.218 20.1352 16.3891 21.4205C16.6664 21.5851 16.9505 21.7181 17.221 21.8447C17.4645 21.9587 17.6945 22.0663 17.8906 22.1803C17.9177 22.193 17.9448 22.212 17.9718 22.2246C18.2018 22.3323 18.4182 22.3829 18.6414 22.3829C19.2028 22.3829 19.5545 22.0537 19.6695 21.946L21.9827 19.7806C22.2126 19.5653 22.5779 19.3057 23.004 19.3057C23.4233 19.3057 23.7683 19.5527 23.9779 19.7679C23.9847 19.7743 23.9847 19.7743 23.9915 19.7806L27.7182 23.2694C28.4149 23.9152 28.4149 24.58 27.725 25.2512Z" fill="black"/>
<path d="M17.2955 7.13617C19.0676 7.41477 20.6773 8.1999 21.9624 9.40292C23.2475 10.6059 24.0794 12.1129 24.3838 13.7718C24.4582 14.1897 24.8437 14.481 25.2834 14.481C25.3375 14.481 25.3848 14.4746 25.4389 14.4683C25.9394 14.3923 26.2709 13.9491 26.1897 13.4805C25.8245 11.4734 24.8099 9.64353 23.261 8.19357C21.7122 6.7436 19.7575 5.79385 17.6134 5.45193C17.1129 5.37595 16.6462 5.68621 16.5583 6.14842C16.4704 6.61064 16.795 7.06019 17.2955 7.13617Z" fill="black"/>
<path d="M31.9861 13.2336C31.3841 9.92849 29.7203 6.92092 27.1636 4.52754C24.6069 2.13415 21.3942 0.576554 17.8636 0.0130316C17.3698 -0.0692806 16.9031 0.247305 16.8152 0.709519C16.734 1.17807 17.0655 1.61495 17.566 1.69727C20.7178 2.19747 23.5924 3.59678 25.8785 5.73056C28.1646 7.87068 29.6526 10.5617 30.1869 13.5122C30.2613 13.9301 30.6469 14.2214 31.0865 14.2214C31.1406 14.2214 31.188 14.2151 31.2421 14.2087C31.7358 14.1391 32.074 13.6959 31.9861 13.2336Z" fill="black"/>
</svg>
