<svg width="32" height="30" viewBox="0 0 32 30" fill="none" xmlns="http://www.w3.org/2000/svg">
<path fill-rule="evenodd" clip-rule="evenodd" d="M27.3377 4.35974C24.3295 1.5498 20.3289 0.00164795 16.0669 0C7.28466 0 0.13718 6.66852 0.133647 14.8647C0.13247 17.4847 0.866058 20.0424 2.26043 22.2968L0 30L8.44647 27.9327C10.7738 29.1172 13.394 29.7415 16.0604 29.7422H16.0671C24.8484 29.7422 31.9967 23.0731 32 14.8766C32.0018 10.9043 30.346 7.16949 27.3377 4.35974ZM16.0669 27.2316H16.0614C13.6852 27.2307 11.3547 26.6349 9.32117 25.5093L8.8378 25.2415L3.82553 26.4683L5.16338 21.9088L4.8484 21.4413C3.52272 19.474 2.82269 17.2002 2.82386 14.8656C2.82661 8.05316 8.76754 2.51074 16.0722 2.51074C19.6095 2.51184 22.9345 3.79871 25.4348 6.13422C27.935 8.46973 29.3112 11.5741 29.31 14.8757C29.3068 21.6887 23.3663 27.2316 16.0669 27.2316ZM23.331 17.9777C22.933 17.7916 20.9756 16.8933 20.6105 16.7692C20.2459 16.6452 19.9802 16.5835 19.715 16.9552C19.4495 17.3269 18.6867 18.1637 18.4543 18.4114C18.222 18.6594 17.99 18.6905 17.5918 18.5045C17.1936 18.3186 15.9109 17.9262 14.3901 16.6608C13.2068 15.6758 12.4078 14.4595 12.1754 14.0878C11.9435 13.7157 12.1735 13.5341 12.3501 13.3297C12.7811 12.8304 13.2126 12.3069 13.3453 12.0591C13.4782 11.8112 13.4116 11.5942 13.3119 11.4084C13.2126 11.2225 12.4164 9.39423 12.0848 8.65027C11.7614 7.92627 11.4334 8.02405 11.1889 8.0127C10.9569 8.00189 10.6914 7.99969 10.4259 7.99969C10.1605 7.99969 9.72917 8.09253 9.36415 8.4646C8.99931 8.83649 7.97095 9.73499 7.97095 11.5633C7.97095 13.3916 9.39751 15.1578 9.59651 15.4058C9.79551 15.6537 12.4039 19.4055 16.3974 21.0143C17.3473 21.3973 18.0887 21.6257 18.6671 21.7969C19.6208 22.0796 20.4885 22.0397 21.1746 21.9441C21.9396 21.8373 23.5298 21.0454 23.8618 20.1779C24.1935 19.3101 24.1935 18.5665 24.0938 18.4114C23.9945 18.2565 23.729 18.1637 23.331 17.9777Z" fill="black"/>
</svg>
